<svg width="51" height="38" viewBox="0 0 51 38" fill="none" xmlns="http://www.w3.org/2000/svg">
<path d="M10.7056 6.41213L10.685 6.43634C10.1073 6.49443 9.58441 8.46477 7.16927 15.0608C4.97181 15.5776 4.12541 15.3307 4.16311 15.171C4.36377 14.3298 5.10193 12.3667 5.72456 10.3613C5.8486 9.87718 6.10641 8.72256 5.93373 8.57007C5.6139 8.28565 4.85993 8.04117 4.52551 8.29896C3.8372 8.82786 0.447978 20.4623 0.0892329 21.3991C-0.448276 23.2544 1.60447 23.2399 1.93525 22.6638C2.07996 22.4109 3.47359 17.9946 3.47359 17.9946C3.53561 17.9231 6.0979 17.5504 6.0979 17.6145C6.0979 17.8687 4.74562 22.4496 4.74562 22.619C4.74562 22.797 5.26853 23.2908 5.70511 23.5715C5.78902 23.626 6.10641 23.7628 6.43719 23.6647C6.67554 23.5933 6.69013 23.5594 6.90416 23.0124C8.19078 19.7132 12.0275 8.138 12.0275 7.08263C12.0275 6.76069 11.6347 6.32741 10.7056 6.41213Z" fill="#F7941D"/>
<path d="M16.2656 16.219L16.2473 16.2214C14.5168 18.5549 12.2172 18.3407 11.9594 17.3942C11.6651 16.3388 12.7329 17.9497 15.5116 15.8693C17.4257 14.4169 18.4557 12.3497 18.401 10.9035C18.3463 9.60846 17.4257 8.82782 15.5116 9.52374C11.794 10.8829 9.65981 14.4992 9.60387 17.2829C9.56739 18.9688 10.3214 20.3582 11.9594 20.7382C13.0089 20.973 13.7823 20.8484 14.8124 20.2723C16.7812 19.1903 17.4075 17.6883 17.3892 16.7273C17.3698 15.8608 16.8359 15.4614 16.2656 16.219ZM16.3385 11.5631L16.375 11.5582C16.8906 11.6006 14.7187 14.0889 13.1548 14.4738C13.0077 14.5125 12.8605 14.5331 12.8423 14.5355C12.548 14.5186 15.4009 11.4844 16.3385 11.5631Z" fill="#F7941D"/>
<path d="M25.2087 11.407C23.8466 9.66662 20.0379 17.2333 20.2033 16.4176C20.5717 14.6482 21.9885 11.942 22.7437 11.2158C24.3635 9.63395 24.8414 11.0984 25.2828 10.7922C25.6695 10.5308 25.3388 8.34862 23.2958 8.6282C20.6094 8.99613 17.8477 15.0209 17.6264 18.0164C17.5899 18.5126 17.6264 18.9229 17.737 19.2097C18.0496 19.9795 18.4728 20.2046 18.9701 20.0993C20.6082 19.7241 22.8713 15.6176 22.8349 15.6987C22.4664 16.6742 21.3439 19.1141 22.2098 19.4675C23.4064 19.9274 23.6265 19.3683 25.1357 14.3081C25.4482 13.2636 25.9444 12.0424 25.2087 11.407Z" fill="#F7941D"/>
<path d="M29.3604 10.9325C30.5752 7.66841 30.7771 7.11168 30.7771 6.84784C30.7771 6.35768 30.2809 5.6896 29.4358 5.80457C28.9542 5.87235 28.8922 5.98975 28.2367 7.55465C27.0401 10.4 25.2743 14.6844 25.3838 17.1244C25.4397 18.2499 25.8811 18.964 26.9854 18.9821C28.0896 18.9821 27.2979 18.3165 27.7588 16.0048C27.9801 14.9567 28.6234 12.9223 29.3604 10.9325Z" fill="#F7941D"/>
<path d="M29.4333 5.80489C29.4346 5.80489 29.4347 5.80489 29.436 5.80489C29.4426 5.80357 29.4465 5.80357 29.4531 5.80225L29.4333 5.80489Z" fill="#F7941D"/>
<path d="M35.622 3.80158C36.2835 3.55347 38.8385 2.84061 39.3213 3.26058C39.618 3.50022 40.2017 2.77284 39.9172 1.88933C39.5001 0.589484 36.5608 1.68116 35.8992 1.77798C36.2385 0.556806 35.8822 -0.108851 35.0358 0.0145982C34.4108 0.10658 34.4302 0.234871 33.5631 2.23184C32.0017 2.70506 30.0718 3.28963 27.8804 3.49659C27.6043 3.51837 27.4025 5.73924 29.4455 5.47782C29.5379 5.46451 32.0941 4.95861 32.1501 4.9695C32.5197 5.01065 32.2656 5.44393 32.2109 5.62184C31.6174 7.21942 29.5878 13.1026 29.2278 14.1374C28.1686 17.2575 28.1954 18.1798 29.1755 18.6034C29.6011 18.8055 29.8042 18.8708 29.9684 18.6578C30.242 18.2971 30.4512 17.076 31.4763 14.1314C31.8716 12.9779 33.9559 6.9931 34.6601 5.26602C35.11 4.17797 35.1635 3.96255 35.622 3.80158Z" fill="#F7941D"/>
<path d="M39.7469 6.50773C39.1024 6.57672 38.3107 7.08261 37.3731 8.11741L37.3367 8.10409L36.8028 8.68745C37.2637 7.50984 38.588 4.41999 37.5215 3.98066C37.3002 3.89715 36.6933 3.94314 36.4538 4.07022C36.2884 4.16825 35.9017 5.01424 34.8899 7.53284C33.0864 12.0109 31.9458 14.9616 31.964 16.6027C31.9822 17.4693 32.313 17.9715 33.05 18.1349C33.3625 18.2051 33.4914 18.2063 33.5826 18.0429C33.8039 17.6544 33.8404 16.3643 35.8093 12.9973C36.7846 11.3343 38.6804 8.86415 39.2143 8.79153C39.5451 8.74675 38.4226 12.9234 37.1713 15.5873C36.9864 15.9903 36.821 16.4091 36.821 16.5047C36.821 16.9585 37.3002 17.4777 37.9617 17.3301C38.5138 17.1982 39.1766 16.616 39.8029 15.1891C42.0842 9.98487 41.661 6.28383 39.7469 6.50773Z" fill="#F7941D"/>
<path d="M49.2239 6.42898L49.1667 6.45561C48.4091 6.55969 47.5566 7.37542 45.0187 10.4641C44.2416 11.4069 43.5983 12.1548 43.5411 12.1633C43.3137 12.1948 44.2987 9.88313 44.2987 9.49342C44.2987 9.25984 43.8634 8.75636 43.276 8.87497C42.6509 9.01899 41.8556 9.86619 41.2111 12.4816C40.7757 14.2123 41.0031 15.8535 42.6886 15.6223C43.8634 15.4613 44.9056 14.366 47.3098 10.8102C48.0297 9.75968 48.313 9.35182 48.3702 9.34334C48.6353 9.30704 45.4346 17.4619 42.916 16.9899C42.3481 16.8931 42.4041 18.8683 43.8062 19.1418C44.3559 19.241 44.8666 19.1333 45.3786 18.8876C48.504 17.3131 50.7197 9.89523 50.7197 8.20447C50.7197 7.15636 50.2648 6.28617 49.2239 6.42898Z" fill="#F7941D"/>
<path d="M15.7852 22.9787C18.4497 22.6144 19.0614 24.0897 19.5952 22.9642C20.5036 20.9963 18.1347 20.753 15.5286 21.1705C13.0612 21.5687 10.3773 22.5854 10.0611 23.3164C9.88357 23.7254 9.86411 24.9031 10.2776 24.8462C10.3177 24.8401 12.5675 23.8235 13.1792 23.6189C13.2181 23.533 8.97394 34.952 8.97394 36.4504C8.97394 36.6331 9.34849 37.3714 10.0003 37.5856L9.97964 37.588C10.3943 37.7139 10.7494 37.6449 11.0267 37.6074C11.4426 35.7266 15.3511 23.038 15.7852 22.9787Z" fill="#EE3137"/>
<path d="M21.0241 27.3912C19.5636 25.525 15.4776 33.6399 15.6551 32.7649C16.0503 30.8672 17.5692 27.9649 18.3791 27.1855C20.1169 25.4887 20.6289 27.0596 21.1032 26.7316C21.5178 26.4521 21.1627 24.1101 18.9714 24.4103C16.0892 24.8049 13.1293 31.2666 12.8922 34.4799C12.8532 35.0124 12.8922 35.4517 13.0101 35.7603C13.3458 36.5858 13.8006 36.8278 14.3332 36.714C16.0892 36.311 18.5178 31.9068 18.4788 31.9939C18.0836 33.0408 16.8797 35.6563 17.8076 36.0363C19.0905 36.5289 19.3265 35.9298 20.9451 30.5017C21.2807 29.3821 21.8133 28.0726 21.0241 27.3912Z" fill="#EE3137"/>
<path d="M29.1743 26.2149C29.4905 24.3281 28.306 23.194 26.7263 23.2884C25.3643 23.3538 23.6873 24.3523 22.4238 26.5308L22.4044 26.5126C21.8717 27.4167 21.7732 28.0775 21.8912 28.5883C22.346 30.4303 25.9967 30.2137 25.188 31.965C24.5167 33.3943 21.9106 33.4875 22.9176 32.1138C23.5292 31.2606 22.8385 30.2209 21.9897 30.7014C21.2989 31.0802 20.5693 32.4358 20.7468 33.6267C20.8648 34.4 21.3585 35.1226 22.5029 35.453C23.0562 35.5994 24.6748 35.3985 25.4434 34.9084C26.5488 34.21 27.4961 32.8654 27.6542 31.5873C27.7332 30.9277 27.6153 30.296 27.2006 29.7659C26.944 29.456 25.779 28.7855 25.1673 28.6052C23.6472 28.1247 26.5099 25.6666 27.1216 25.5831C27.7734 25.4936 26.4697 27.3332 26.4697 27.6781C26.4709 28.5495 28.6027 29.6158 29.1743 26.2149Z" fill="#EE3137"/>
<path d="M35.6864 21.5553C36.3966 21.2963 39.1413 20.5556 39.6545 21.0119C39.9707 21.2721 40.6018 20.4975 40.3063 19.545C39.8722 18.1459 36.714 19.2872 36.0026 19.384C36.3772 18.0769 36.0026 17.358 35.0942 17.4827C34.4229 17.5747 34.4424 17.7138 33.495 19.8488C31.8169 20.3414 29.7446 20.9489 27.3964 21.1498C27.1009 21.1704 26.8637 23.5522 29.0539 23.2932C29.1524 23.2799 31.8959 22.7619 31.9555 22.774C32.3507 22.8212 32.0747 23.2848 32.0151 23.4748C31.3633 25.1849 30.18 28.466 29.7848 29.5734C28.621 32.9138 28.6404 33.9038 29.6863 34.3673C30.1411 34.5888 30.3576 34.6602 30.5351 34.4339C30.8318 34.049 31.0677 32.7407 32.1926 29.5879C32.6268 28.3534 33.8696 24.9622 34.6406 23.1153C35.1343 21.9559 35.1939 21.7247 35.6864 21.5553Z" fill="#EE3137"/>
<path d="M42.713 20.2494L42.6534 20.2773C41.8641 20.385 40.9752 21.2358 38.3302 24.454C37.5203 25.4355 36.8502 26.2161 36.7906 26.2246C36.5535 26.2573 37.5799 23.8476 37.5799 23.4422C37.5799 23.1989 37.1251 22.6736 36.5134 22.7983C35.8615 22.9484 35.0334 23.8319 34.3621 26.5574C33.9085 28.362 34.1457 30.0709 35.9017 29.8313C37.1251 29.6642 38.211 28.5229 40.7186 24.8171C41.4689 23.7218 41.7644 23.2969 41.824 23.2885C42.1001 23.2509 38.7643 31.7496 36.1388 31.2582C35.5466 31.1565 35.6062 33.2152 37.0667 33.5021C37.6395 33.6061 38.1721 33.4924 38.7047 33.237C41.9614 31.5959 44.272 23.8658 44.272 22.1036C44.2732 21.0083 43.7989 20.1006 42.713 20.2494Z" fill="#EE3137"/>
<path d="M8.59331 31.5401H8.58601C8.07404 31.5789 7.58031 31.4736 7.12063 31.2763C7.68368 30.1543 7.95 29.0772 8.09228 27.9904C8.12876 27.7072 7.97797 27.4772 7.70921 27.4457C7.3906 27.4082 7.02821 27.6648 6.89808 28.0182L6.87741 28.0739C6.58677 28.8666 6.24748 29.6969 5.8559 30.4339C5.44851 30.0515 5.10558 29.6134 4.84777 29.1183C5.32812 28.5265 5.81334 27.9347 6.31315 27.3271C6.59893 26.9919 6.85066 26.5719 6.9674 26.1168C7.08415 25.663 7.03064 25.191 6.8008 24.8666C6.57582 24.5374 6.19519 24.368 5.80118 24.3547C5.60296 24.3498 5.40473 24.3716 5.20895 24.4176C5.01316 24.4733 4.84169 24.5156 4.60212 24.6476C4.14852 24.8775 3.76059 25.3314 3.56237 25.7392C3.36901 26.1471 3.28267 26.5259 3.23646 26.8793C3.15741 27.5813 3.24375 28.1973 3.3836 28.7758C3.39698 28.8291 3.4213 28.8751 3.43589 28.9283C3.21335 29.1728 2.99202 29.4185 2.76948 29.6593L2.5968 29.8481L2.37425 30.1229C2.2417 30.3056 2.12131 30.4932 2.01916 30.6808C1.81607 31.0584 1.66041 31.4506 1.57042 31.8669C1.48287 32.2784 1.45733 32.7323 1.60691 33.1486C1.74676 33.5698 2.08361 33.8772 2.45208 34.0309C2.82542 34.1798 3.21335 34.2052 3.57818 34.1761C3.95395 34.1434 4.41849 34.0466 4.83926 33.8203C5.50445 33.4766 6.02737 32.9598 6.42138 32.4345C6.96862 32.6911 7.59125 32.8484 8.31361 32.8218C8.3209 32.8218 8.32942 32.8206 8.33671 32.8206C8.67235 32.7952 9.00313 32.4878 9.07366 32.1344C9.14298 31.7798 8.92894 31.5147 8.59331 31.5401ZM4.37106 26.7002C4.63617 25.5395 5.33542 25.5734 5.41933 25.5746C5.5835 25.5843 5.69781 25.6533 5.76105 25.7513C5.88995 25.9401 5.82672 26.2899 5.49473 26.6361C5.14084 27.0367 4.7748 27.4457 4.40876 27.8548C4.34066 27.476 4.28351 27.0851 4.37106 26.7002ZM3.44684 32.2965C3.33496 32.2554 3.27902 32.2094 3.22673 32.1307C2.74638 31.3925 3.91138 30.2851 3.98435 30.1931C4.30175 30.7195 4.69089 31.1831 5.13112 31.5704C4.8952 31.8584 4.13393 32.4055 3.44684 32.2965Z" fill="#939598"/>
</svg>
